<svg width="151" height="44" viewBox="0 0 151 44" fill="none" xmlns="http://www.w3.org/2000/svg">
<path d="M7.34598 28.0988C7.62408 27.5952 7.96923 27.1316 8.37198 26.7208C9.80798 25.2278 11.797 24.2988 13.21 22.4138C14.8021 20.4681 15.7203 18.0586 15.8269 15.5468V9.38281C15.8269 3.71481 13.042 0.882812 8.24497 0.882812C3.60897 0.882812 0.610936 3.66181 0.610936 9.33581V16.6408H6.99399V9.93081C6.99399 7.09281 7.31697 6.60381 8.24497 6.60381C9.01197 6.60381 9.39298 7.09381 9.39298 9.93081V14.8898C9.39298 20.1258 5.35599 20.5068 3.06699 23.2338C1.19797 25.2857 0.201184 27.9847 0.287938 30.7588V43.0788H15.441V29.7788H8.90195V37.2458H6.55594V31.5758C6.51574 30.3683 6.78748 29.1707 7.34494 28.0988" fill="#036E8A"/>
<path d="M30.381 36.2639C30.381 37.3019 29.9481 37.8439 29.0721 37.8439C28.1961 37.8439 27.7111 37.3019 27.7111 36.2639V25.6899L21.3331 26.4449V36.8639C21.3331 41.3899 24.333 43.6789 29.071 43.6789C33.871 43.6789 36.871 41.3329 36.871 36.8119V24.6059L30.3781 25.3719L30.381 36.2639ZM29.017 0.87793C24.217 0.87793 21.3311 3.16693 21.3311 7.69293V18.2929C22.9811 17.4119 25.068 16.2929 27.709 14.8929V8.24093C27.709 7.15093 28.1991 6.60293 29.0181 6.60293C29.9461 6.60293 30.379 7.15093 30.379 8.24093V13.4709C32.293 12.4559 34.4441 11.3089 36.8721 10.0169V7.64193C36.8721 3.11593 33.816 0.87793 29.019 0.87793" fill="#036E8A"/>
<path d="M16.6741 24.0908C17.0241 23.8288 44.834 9.04883 44.834 9.04883L44.7501 20.7638L16.6741 24.0908Z" fill="#036E8A"/>
<path d="M68.7791 19.5851V20.6101C68.7791 23.6451 68.2671 27.8621 62.7111 27.8621C57.8231 27.8621 56.7991 24.7871 56.7991 20.8071V7.52607C56.7991 3.46707 58.652 0.74707 62.79 0.74707C67.716 0.74707 68.662 4.01807 68.662 7.68307V8.86507H64.6011V7.21107C64.6011 5.43707 64.1671 4.45107 62.7471 4.45107C61.3691 4.45107 60.936 5.39807 60.936 7.21107V21.1221C60.936 22.8551 61.291 24.1971 62.826 24.1971C64.284 24.1971 64.6791 23.0141 64.6791 21.0831V19.5831L68.7791 19.5851Z" fill="#036E8A"/>
<path d="M79.3849 11.7822C77.0579 11.7822 75.0089 12.3742 75.0089 16.5512V27.4672H70.9499V13.9892C70.9499 10.6012 70.9899 9.14221 70.9119 7.05321H74.7729C74.8119 7.44821 74.8899 9.26021 74.8899 10.3632C75.0789 9.32294 75.6384 8.38638 76.4648 7.7269C77.2912 7.06742 78.3286 6.72968 79.3849 6.77621V11.7822Z" fill="#036E8A"/>
<path d="M84.902 18.3652V21.3652C84.902 22.9412 85.295 24.3602 86.832 24.3602C88.448 24.3602 88.645 22.9022 88.645 21.4432V21.3652H92.586V21.4422C92.586 23.5712 92.1519 27.7872 86.9109 27.7872C81.7109 27.7872 80.96 24.5562 80.96 20.4572V13.7572C80.96 10.9572 81.8279 6.74121 86.9109 6.74121C91.2459 6.74121 92.664 9.69821 92.664 13.7172V18.3682L84.902 18.3652ZM88.764 15.1732V13.0832C88.764 11.1912 88.3289 10.1662 86.8719 10.1662C85.5719 10.1662 84.941 11.1132 84.941 13.0832V15.1722L88.764 15.1732Z" fill="#036E8A"/>
<path d="M106.147 23.2899C106.147 24.5899 106.186 26.6779 106.226 27.4669H102.526C102.447 27.0729 102.326 26.2459 102.29 25.9669C101.961 26.5651 101.466 27.0549 100.864 27.3768C100.262 27.6986 99.5798 27.8387 98.8998 27.7799C95.8248 27.7799 94.5999 24.9419 94.5999 21.8679V21.5139C94.5999 16.4689 97.9888 15.1289 101.656 15.1289H102.128V12.5289C102.128 10.9529 101.928 10.0459 100.71 10.0459C99.4918 10.0459 99.2098 10.9919 99.2098 12.2529V12.5689H95.2288V12.3319C95.2288 9.37593 96.3718 6.73193 100.864 6.73193C104.764 6.73193 106.145 8.93893 106.145 12.2099L106.147 23.2899ZM102.207 18.2059H101.536C99.6848 18.2059 98.4609 18.9149 98.4609 21.4769V21.7929C98.4609 23.2119 98.9728 24.2369 100.234 24.2369C101.614 24.2369 102.206 23.2899 102.206 20.5709L102.207 18.2059Z" fill="#036E8A"/>
<path d="M107.804 7.05399H109.972V2.16699H114.031V7.05399H116.592V10.641H114.031V22.7C114.031 23.646 114.148 24.433 115.37 24.433C115.74 24.4412 116.11 24.4015 116.47 24.315V27.351C115.683 27.6753 114.836 27.8231 113.986 27.784C111.463 27.784 109.967 26.956 109.967 23.409V10.641H107.799L107.804 7.05399Z" fill="#036E8A"/>
<path d="M118.683 7.05793H122.742V27.4679H118.683V7.05793ZM118.723 0.00292969H122.782V4.33793H118.723V0.00292969Z" fill="#036E8A"/>
<path d="M128.931 7.05322C129.6 11.0732 130.742 18.4822 131.294 22.9362H131.335C131.689 18.6362 133.148 11.2702 133.778 7.05322H137.838L133.462 27.4672H128.891L124.591 7.05322H128.931Z" fill="#036E8A"/>
<path d="M143.042 18.3652V21.3652C143.042 22.9412 143.435 24.3602 144.972 24.3602C146.588 24.3602 146.785 22.9022 146.785 21.4432V21.3652H150.726V21.4422C150.726 23.5712 150.292 27.7872 145.051 27.7872C139.851 27.7872 139.1 24.5562 139.1 20.4572V13.7572C139.1 10.9572 139.968 6.74121 145.051 6.74121C149.386 6.74121 150.804 9.69821 150.804 13.7172V18.3682L143.042 18.3652ZM146.904 15.1732V13.0832C146.904 11.1912 146.471 10.1662 145.012 10.1662C143.712 10.1662 143.081 11.1132 143.081 13.0832V15.1722L146.904 15.1732Z" fill="#036E8A"/>
<path d="M61.182 33.9091V39.9751C61.182 42.0151 60.349 43.0621 58.645 43.0621C56.818 43.0621 56.197 41.8741 56.197 39.9931V33.9091C56.197 31.9571 57.066 30.8921 58.718 30.8921C60.456 30.8921 61.182 32.1341 61.182 33.9091ZM57.351 33.8731V40.0641C57.351 41.4831 57.865 42.0341 58.698 42.0341C59.567 42.0341 60.029 41.5011 60.029 40.0111V33.8921C60.029 32.5621 59.567 31.9231 58.68 31.9231C57.78 31.9231 57.351 32.5231 57.351 33.8751" fill="#036E8A"/>
<path d="M67.8358 40.5252C67.8358 41.6432 67.8358 42.4942 67.8538 42.9022H66.7708C66.7528 42.7422 66.7358 42.2822 66.7358 41.9442C66.6404 42.2886 66.426 42.588 66.1307 42.7894C65.8354 42.9908 65.4784 43.081 65.1229 43.0442C64.4109 43.0442 63.3828 42.7772 63.3828 40.7542V33.9092H64.5178V40.4552C64.5178 41.5902 64.8178 42.0152 65.5118 42.0152C66.1508 42.0152 66.7018 41.6252 66.7018 39.7802V33.9092H67.8369L67.8358 40.5252Z" fill="#036E8A"/>
<path d="M73.262 35.1852C72.127 35.1852 71.3979 35.9302 71.3979 37.4912V42.9022H70.2819V36.9762C70.2819 35.5212 70.2819 34.6702 70.2629 33.9072H71.3459C71.3639 34.1552 71.3809 34.6702 71.3809 35.2912C71.4767 34.8637 71.7152 34.4814 72.057 34.2074C72.3989 33.9333 72.8238 33.7837 73.262 33.7832V35.1852Z" fill="#036E8A"/>
<path d="M78.1221 31.0508H80.1091C81.9011 31.0508 82.5571 32.0258 82.5571 33.6048V34.1558C82.5571 35.8228 82.079 36.3378 81.457 36.5508C82.131 36.7638 82.806 37.3508 82.806 38.9278V39.7968C82.806 41.8908 82.132 42.8968 80.126 42.8968H78.126L78.1221 31.0508ZM80.0911 36.1068C81.1561 36.1068 81.4741 35.6458 81.4741 34.2268V33.6788C81.4741 32.5788 81.0671 32.0278 80.0211 32.0278H79.2401V36.1078L80.0911 36.1068ZM79.2401 41.9438H80.04C81.353 41.9438 81.6901 41.3058 81.6901 39.7798V38.9638C81.6901 37.6328 81.19 37.0638 80.058 37.0638H79.243L79.2401 41.9438Z" fill="#036E8A"/>
<path d="M89.3329 40.5252C89.3329 41.6432 89.3329 42.4942 89.3509 42.9022H88.2679C88.2499 42.7422 88.2328 42.2822 88.2328 41.9442C88.1374 42.2886 87.923 42.588 87.6277 42.7894C87.3324 42.9908 86.9754 43.081 86.6199 43.0442C85.9079 43.0442 84.8799 42.7772 84.8799 40.7542V33.9092H86.0149V40.4552C86.0149 41.5902 86.3149 42.0152 87.0089 42.0152C87.6479 42.0152 88.1989 41.6252 88.1989 39.7802V33.9092H89.3339L89.3329 40.5252Z" fill="#036E8A"/>
<path d="M92.295 40.2581V40.6481C92.295 41.6071 92.6839 42.0671 93.3409 42.0671C94.0869 42.0671 94.37 41.6061 94.37 40.7191C94.37 39.7791 94.087 39.3711 93.076 38.6971C91.886 37.8971 91.336 37.2781 91.336 36.0361C91.336 34.7361 91.922 33.7651 93.376 33.7651C94.937 33.7651 95.399 34.7941 95.399 36.0711V36.4961H94.2809V36.0181C94.2809 35.2181 94.0679 34.7401 93.3589 34.7401C92.7219 34.7401 92.459 35.1841 92.459 35.9291C92.459 36.6741 92.689 37.0111 93.612 37.6151C94.872 38.4491 95.512 39.0871 95.512 40.5591C95.512 42.1731 94.821 43.0431 93.296 43.0431C91.61 43.0431 91.167 41.8891 91.167 40.6661V40.2571L92.295 40.2581Z" fill="#036E8A"/>
<path d="M97.5239 30.52H98.6589V32.329H97.5239V30.52ZM97.5239 33.908H98.6409V42.902H97.5239V33.908Z" fill="#036E8A"/>
<path d="M101.108 36.6399C101.108 34.8309 101.108 34.3509 101.09 33.9079H102.155C102.198 34.2133 102.215 34.5216 102.208 34.8299C102.327 34.4952 102.554 34.2094 102.852 34.0169C103.151 33.8245 103.505 33.7362 103.859 33.7659C104.816 33.7659 105.614 34.2969 105.614 35.9469V42.9019H104.478V36.1609C104.478 35.2919 104.196 34.8119 103.504 34.8119C102.724 34.8119 102.226 35.1849 102.226 37.0119V42.9019H101.108V36.6399Z" fill="#036E8A"/>
<path d="M108.913 38.6081V40.1161C108.913 41.0551 109.091 42.0671 110.03 42.0671C110.918 42.0671 111.095 41.3581 111.095 40.4361V40.3641H112.195V40.4361C112.195 41.5001 111.947 43.0431 110.031 43.0431C108.239 43.0431 107.795 41.8551 107.795 40.0271V36.5861C107.795 35.1861 108.295 33.7651 110.048 33.7651C111.734 33.7651 112.212 35.0431 112.212 36.5861V38.6081H108.913ZM111.131 37.6681V36.4971C111.131 35.6641 111.006 34.7411 110.031 34.7411C109.131 34.7411 108.914 35.5221 108.914 36.5151V37.6711L111.131 37.6681Z" fill="#036E8A"/>
<path d="M115.121 40.2581V40.6481C115.121 41.6071 115.51 42.0671 116.167 42.0671C116.913 42.0671 117.196 41.6061 117.196 40.7191C117.196 39.7791 116.913 39.3711 115.902 38.6971C114.712 37.8971 114.162 37.2781 114.162 36.0361C114.162 34.7361 114.748 33.7651 116.202 33.7651C117.764 33.7651 118.225 34.7941 118.225 36.0711V36.4961H117.107V36.0181C117.107 35.2181 116.894 34.7401 116.185 34.7401C115.548 34.7401 115.285 35.1841 115.285 35.9291C115.285 36.6741 115.515 37.0111 116.438 37.6151C117.698 38.4491 118.338 39.0871 118.338 40.5591C118.338 42.1731 117.647 43.0431 116.122 43.0431C114.436 43.0431 113.993 41.8891 113.993 40.6661V40.2571L115.121 40.2581Z" fill="#036E8A"/>
<path d="M121.099 40.2581V40.6481C121.099 41.6071 121.487 42.0671 122.144 42.0671C122.89 42.0671 123.173 41.6061 123.173 40.7191C123.173 39.7791 122.89 39.3711 121.879 38.6971C120.689 37.8971 120.139 37.2781 120.139 36.0361C120.139 34.7361 120.726 33.7651 122.179 33.7651C123.74 33.7651 124.202 34.7941 124.202 36.0711V36.4961H123.084V36.0181C123.084 35.2181 122.871 34.7401 122.162 34.7401C121.525 34.7401 121.262 35.1841 121.262 35.9291C121.262 36.6741 121.492 37.0111 122.415 37.6151C123.675 38.4491 124.315 39.0871 124.315 40.5591C124.315 42.1731 123.624 43.0431 122.099 43.0431C120.413 43.0431 119.97 41.8891 119.97 40.6661V40.2571L121.099 40.2581Z" fill="#036E8A"/>
<path d="M129.525 31.0508H131.582C133.32 31.0508 134.135 31.9378 134.135 33.8008V34.5278C134.135 36.2658 133.635 37.5968 131.51 37.5968H130.659V42.8968H129.524L129.525 31.0508ZM130.66 36.6208H131.404C132.804 36.6208 133.004 35.7688 133.004 34.5098V33.8718C133.004 32.8968 132.774 32.0258 131.514 32.0258H130.663L130.66 36.6208Z" fill="#036E8A"/>
<path d="M137.345 30.519H136.228V42.902H137.345V30.519Z" fill="#036E8A"/>
<path d="M143.681 41.4111C143.681 42.0321 143.699 42.6531 143.715 42.9011H142.669C142.617 42.656 142.587 42.4067 142.58 42.1561C142.464 42.444 142.258 42.6864 141.993 42.8467C141.727 43.0069 141.416 43.0762 141.108 43.0441C139.831 43.0441 139.315 41.9081 139.315 40.5241V40.3641C139.273 39.9884 139.317 39.608 139.443 39.2518C139.57 38.8955 139.776 38.5727 140.045 38.3078C140.315 38.0429 140.642 37.8429 141 37.7229C141.359 37.6029 141.74 37.566 142.115 37.6151H142.54V36.1251C142.54 35.2911 142.399 34.7411 141.653 34.7411C140.927 34.7411 140.713 35.3091 140.713 36.0361V36.3031H139.596V36.0541C139.596 34.8121 140.096 33.7651 141.689 33.7651C143.215 33.7651 143.677 34.7591 143.677 36.0541L143.681 41.4111ZM142.581 38.5371H142.103C141.039 38.5371 140.417 38.9811 140.417 40.3291V40.4891C140.417 41.3221 140.665 42.0141 141.411 42.0141C142.298 42.0141 142.581 41.3051 142.581 39.9201V38.5371Z" fill="#036E8A"/>
<path d="M146.143 36.6398C146.143 34.8308 146.143 34.3508 146.125 33.9078H147.19C147.233 34.2132 147.25 34.5216 147.243 34.8298C147.362 34.4953 147.589 34.2095 147.888 34.0171C148.186 33.8247 148.54 33.7363 148.894 33.7658C149.851 33.7658 150.649 34.2968 150.649 35.9468V42.9018H149.513V36.1608C149.513 35.2918 149.231 34.8118 148.539 34.8118C147.759 34.8118 147.26 35.1848 147.26 37.0118V42.9018H146.143V36.6398Z" fill="#036E8A"/>
</svg>
