<svg width="176" height="56" viewBox="0 0 176 56" fill="none" xmlns="http://www.w3.org/2000/svg">
<path d="M34.426 18.9789L32.245 17.7249C32.2308 17.2577 32.3548 16.7966 32.6013 16.3995C32.8478 16.0023 33.206 15.6866 33.631 15.4919C35.1642 14.5883 36.355 13.2022 37.0174 11.5503C37.6797 9.89843 37.7763 8.07367 37.2921 6.36106C36.8079 4.64845 35.7701 3.14442 34.3409 2.08389C32.9116 1.02335 31.1714 0.466015 29.392 0.498938C29.085 0.498938 28.772 0.515937 28.453 0.546937C26.5626 0.798014 24.8222 1.71071 23.5407 3.12305C22.2593 4.53539 21.5196 6.35605 21.453 8.26194C21.3897 8.99676 21.6196 9.72681 22.0927 10.2926C22.5658 10.8585 23.2435 11.2141 23.978 11.2819C24.0566 11.2873 24.1337 11.2899 24.209 11.2899C24.9186 11.2956 25.6029 11.0262 26.1182 10.5383C26.6336 10.0504 26.9399 9.38184 26.973 8.67294L26.995 8.39694C26.9988 8.25372 27.0155 8.11115 27.045 7.97094C27.1673 7.42235 27.4704 6.93077 27.9056 6.57514C28.3409 6.21951 28.883 6.02046 29.445 6.00994C30.0039 5.99191 30.5534 6.15718 31.0096 6.48054C31.4659 6.8039 31.8038 7.2676 31.972 7.80094C32.1508 8.34717 32.1361 8.93835 31.9301 9.47493C31.7241 10.0115 31.3394 10.4607 30.841 10.7469C29.5655 11.4009 28.5046 12.4075 27.7849 13.6471C27.0651 14.8867 26.7167 16.307 26.781 17.7389C24.495 19.0509 22.227 20.3639 19.944 21.6869L18.9709 22.2499C14.1643 25.0499 9.34234 27.8429 4.505 30.6289C2.9356 31.5173 1.75759 32.9633 1.20496 34.6799C1.12996 34.9279 1.05498 35.1799 0.96698 35.4249L0.904968 35.6069V37.7189C0.904968 37.7189 1.01598 38.0119 1.04498 38.0769C1.3373 39.5637 2.11418 40.9116 3.25409 41.9099C4.394 42.9081 5.83265 43.5003 7.34497 43.5939C8.43797 43.6529 9.52595 43.6609 10.351 43.6609L12.876 43.6529H41.3V38.1249H8.01599C7.64669 38.1725 7.27346 38.0735 6.97626 37.8492C6.67905 37.6249 6.48149 37.2931 6.42596 36.9249C6.38138 36.6156 6.43739 36.3 6.58575 36.0249C6.73412 35.7498 6.96701 35.5297 7.25 35.3969C8.37267 34.7423 9.49866 34.0903 10.628 33.4409C11.728 32.8056 12.828 32.1693 13.928 31.5319C17.7993 29.2959 21.666 27.0543 25.528 24.8069L29.541 22.4779L41.306 29.3119V22.9569L40.742 22.6289C38.6393 21.4083 36.5346 20.1916 34.428 18.9789" fill="#036E8A"/>
<path d="M172.471 33.4109C170.827 35.9029 168.484 38.2449 167.289 38.2449C166.641 38.2449 166.243 37.7449 166.243 36.9499C166.243 34.6569 169.232 27.9799 171.176 23.8429C168.322 23.8805 165.47 23.664 162.654 23.1959C162.903 22.4959 163.104 21.7959 163.302 21.0529H158.766C157.745 25.6329 156.018 30.0264 153.647 34.0759C151.198 37.4629 148.697 38.7949 145.214 38.7949C142.323 38.7949 140.877 37.5949 140.529 35.6049C145.563 36.7509 152.241 34.1099 152.241 28.1799C152.261 27.3892 152.118 26.6028 151.82 25.87C151.523 25.1373 151.077 24.474 150.51 23.9218C149.944 23.3696 149.27 22.9404 148.53 22.6611C147.79 22.3818 147 22.2585 146.21 22.2989C140.285 22.2989 136.122 27.5129 135.452 33.3989C133.746 36.1593 131.338 38.4175 128.474 39.9429L134.204 22.7989H129.118L128.518 24.5939C127.871 23.8337 127.059 23.2319 126.143 22.8346C125.228 22.4373 124.233 22.255 123.236 22.3019C118.043 22.3019 113.901 27.6019 113.688 33.4459C111.808 36.3299 109.894 38.2459 108.539 38.2459C108.399 38.2579 108.257 38.2391 108.125 38.1908C107.992 38.1424 107.872 38.0658 107.772 37.9662C107.673 37.8666 107.596 37.7464 107.547 37.614C107.499 37.4817 107.48 37.3403 107.492 37.1999C107.492 35.0569 111.528 30.0739 111.429 26.3859C111.458 25.8459 111.373 25.3059 111.181 24.8005C110.989 24.295 110.693 23.8352 110.313 23.4505C109.933 23.0658 109.477 22.7647 108.974 22.5664C108.471 22.3681 107.932 22.277 107.392 22.2989C104.951 22.2989 102.26 23.8439 100.465 26.8839L101.865 22.7969H96.832C95.873 25.5459 94.938 28.2969 94.005 31.0449C91.674 35.3129 89.077 38.2449 87.366 38.2449C85.473 38.2449 86.766 34.7569 91.154 22.7959H86.071L85.371 24.8899C84.8634 24.1062 84.1704 23.4597 83.3535 23.0076C82.5365 22.5555 81.6206 22.3117 80.687 22.2979C75.72 22.2979 71.533 27.6099 70.614 33.4449C68.73 36.3269 66.831 38.2449 65.441 38.2449C65.3038 38.2518 65.1668 38.2291 65.0392 38.1784C64.9117 38.1276 64.7965 38.05 64.7016 37.9507C64.6067 37.8515 64.5343 37.7329 64.4893 37.6032C64.4443 37.4735 64.4279 37.3356 64.441 37.1989C64.441 35.0559 68.478 30.0729 68.378 26.3849C68.4023 25.8459 68.3148 25.3078 68.1212 24.8043C67.9276 24.3008 67.6319 23.8427 67.2528 23.4589C66.8737 23.0751 66.4194 22.7739 65.9183 22.5741C65.4172 22.3743 64.8802 22.2802 64.341 22.2979C61.899 22.2979 59.209 23.8429 57.414 26.8829C59.159 21.6509 60.953 16.4679 62.847 11.2349H57.764C54.225 21.4509 49.989 33.9089 47.049 42.5349H52.232C53.732 37.0539 57.615 26.8869 61.652 26.8869C62.552 26.8869 62.852 27.4349 62.852 28.2329C62.852 30.5749 59.164 34.8109 59.164 38.6479C59.164 41.1889 60.709 43.0329 63.699 43.0329C66.248 43.0329 68.727 41.1129 70.793 38.6769C71.551 41.3889 73.442 43.0329 76.055 43.0329C77.2126 43.0283 78.3483 42.7169 79.3463 42.1303C80.3442 41.5438 81.1688 40.703 81.736 39.6939C81.8843 40.6477 82.377 41.5142 83.1208 42.1294C83.8647 42.7447 84.8083 43.0661 85.773 43.0329C87.6345 42.8898 89.3835 42.0857 90.704 40.7659C90.504 41.3559 90.304 41.9459 90.104 42.5349H95.287C96.787 37.0539 100.72 26.8869 104.706 26.8869C105.606 26.8869 105.906 27.4349 105.906 28.2329C105.906 30.5749 102.219 34.8109 102.219 38.6479C102.219 41.1889 103.765 43.0329 106.754 43.0329C109.69 43.0329 112.5 40.5389 114.705 37.6249C115.228 38.4307 115.948 39.0896 116.797 39.5389C117.647 39.9881 118.597 40.2129 119.557 40.1919C120.493 40.1976 121.418 40 122.27 39.6127C123.122 39.2254 123.879 38.6577 124.49 37.9489L123.09 41.9359C115.765 42.3359 108.49 45.1259 108.49 50.7569C108.49 53.8969 111.131 55.7899 114.818 55.7899C119.503 55.7899 124.287 52.5019 126.779 45.1259L126.879 44.7779C130.435 43.4775 133.57 41.232 135.945 38.2829C137.203 41.3829 140.335 43.0329 144.118 43.0329C147.429 43.1739 150.669 42.0511 153.183 39.8919C153.5 39.6637 153.786 39.3947 154.033 39.0919C154.057 39.0639 154.08 39.0339 154.104 39.0069C154.984 38.0672 155.769 37.0421 156.446 35.9469C158.325 33.2721 159.906 30.4001 161.161 27.3819C162.254 27.6626 163.372 27.8302 164.499 27.8819C162.606 32.0179 161.06 35.2079 161.06 38.2969C161.018 38.9209 161.109 39.5467 161.326 40.1333C161.542 40.72 161.881 41.2542 162.318 41.7011C162.756 42.148 163.283 42.4974 163.865 42.7266C164.446 42.9557 165.07 43.0594 165.695 43.0309C169.781 43.0309 173.718 38.9449 175.313 36.2039L172.471 33.4109ZM145.862 26.4339C146.108 26.4275 146.353 26.4756 146.578 26.5747C146.803 26.6737 147.004 26.8213 147.166 27.0069C147.328 27.1925 147.447 27.4115 147.514 27.6483C147.582 27.8851 147.596 28.1339 147.556 28.3769C147.507 31.1179 143.818 32.8129 140.629 32.4639C141.276 29.1249 143.369 26.4339 145.861 26.4339M78 38.2439C76.405 38.2439 75.708 36.8989 75.708 35.3039C75.708 31.4669 77.901 26.8329 81.19 26.8329C81.7839 26.8452 82.366 27.0012 82.8865 27.2875C83.4071 27.5738 83.8505 27.9819 84.179 28.4769C82.186 35.0549 80.193 38.2439 78 38.2439ZM115.368 51.6509C114.068 51.6509 113.374 51.1509 113.374 50.1049C113.374 47.6139 118.108 45.8689 121.896 45.5699C120.252 49.5069 117.76 51.6509 115.368 51.6509ZM121.397 36.0499C119.753 36.0499 118.756 34.9499 118.756 33.0599C118.756 30.1189 120.351 26.5809 123.839 26.5809C125.119 26.6296 126.331 27.1663 127.228 28.0809C125.928 31.7689 124.387 36.0539 121.397 36.0539" fill="#036E8A"/>
<path d="M69.678 15.1232H72.185V14.3692H69.678V11.9742H72.766V11.2202H68.751V18.3202H69.678V15.1232Z" fill="#036E8A"/>
<path d="M74.988 16.7442H78.088L78.658 18.3242H79.636L77.077 11.2612H76.008L73.439 18.3242H74.418L74.988 16.7442ZM76.537 12.4032L77.821 15.9902H75.254L76.537 12.4032Z" fill="#036E8A"/>
<path d="M83.008 17.6112C82.6256 17.638 82.2478 17.5154 81.954 17.2692C81.7166 17.05 81.5694 16.7502 81.541 16.4282H80.552C80.5522 16.7954 80.6661 17.1534 80.878 17.4532C81.1007 17.7584 81.4016 17.9978 81.749 18.1462C82.1461 18.3182 82.5753 18.4034 83.008 18.3962C83.4496 18.4069 83.887 18.309 84.282 18.1112C84.6175 17.9433 84.8997 17.6854 85.097 17.3662C85.2771 17.0719 85.372 16.7333 85.371 16.3882C85.3932 16.01 85.2875 15.6352 85.071 15.3242C84.8788 15.0718 84.626 14.872 84.336 14.7432C83.9684 14.5896 83.5905 14.4619 83.205 14.3612C82.8184 14.2526 82.5183 14.1556 82.305 14.0702C82.098 13.9903 81.9127 13.8629 81.764 13.6982C81.6136 13.5225 81.5354 13.2963 81.545 13.0652C81.5368 12.9062 81.5658 12.7475 81.6295 12.6015C81.6931 12.4556 81.7899 12.3264 81.912 12.2242C82.1826 12.0154 82.5185 11.9091 82.86 11.9242C83.2196 11.9062 83.574 12.0164 83.86 12.2352C84.0916 12.4089 84.2454 12.6669 84.288 12.9532H85.307C85.2875 12.6941 85.2133 12.4421 85.0894 12.2137C84.9655 11.9853 84.7946 11.7858 84.588 11.6282C84.1159 11.2801 83.5391 11.1037 82.953 11.1282C82.5307 11.1199 82.1117 11.2035 81.725 11.3732C81.3873 11.5199 81.0989 11.7604 80.894 12.0662C80.6934 12.3716 80.5889 12.73 80.594 13.0952C80.5742 13.4704 80.6797 13.8416 80.894 14.1502C81.0813 14.4014 81.3304 14.5998 81.617 14.7262C81.9831 14.8761 82.3598 14.9988 82.744 15.0932C83.0513 15.1716 83.3541 15.2667 83.651 15.3782C83.8662 15.4601 84.0583 15.5929 84.211 15.7652C84.3661 15.95 84.4464 16.1862 84.436 16.4272C84.4402 16.5887 84.408 16.7491 84.3417 16.8965C84.2754 17.0438 84.1767 17.1743 84.053 17.2782C83.7572 17.5134 83.3853 17.6325 83.008 17.6112Z" fill="#036E8A"/>
<path d="M87.666 15.1042H91.285V18.3242H92.212V11.2242H91.285V14.3422H87.666V11.2202H86.739V18.3202H87.666V15.1042Z" fill="#036E8A"/>
<path d="M94.718 11.2212H93.791V18.3252H94.718V11.2212Z" fill="#036E8A"/>
<path d="M97.716 17.9321C98.2701 18.2369 98.8921 18.3966 99.5245 18.3966C100.157 18.3966 100.779 18.2369 101.333 17.9321C101.872 17.6288 102.316 17.1832 102.619 16.6441C102.926 16.0665 103.086 15.4226 103.086 14.7686C103.086 14.1147 102.926 13.4707 102.619 12.8931C102.317 12.3533 101.872 11.907 101.333 11.6031C100.779 11.2991 100.157 11.1396 99.5245 11.1396C98.8923 11.1396 98.2703 11.2991 97.716 11.6031C97.1759 11.909 96.7297 12.3568 96.426 12.8981C96.115 13.4726 95.9521 14.1155 95.9521 14.7686C95.9521 15.4218 96.115 16.0647 96.426 16.6391C96.7298 17.1801 97.176 17.6276 97.716 17.9331M97.241 13.2761C97.4537 12.8673 97.777 12.5263 98.174 12.2921C98.5859 12.0649 99.0486 11.9457 99.519 11.9457C99.9894 11.9457 100.452 12.0649 100.864 12.2921C101.261 12.5262 101.584 12.8672 101.797 13.2761C102.021 13.741 102.138 14.2505 102.138 14.7666C102.138 15.2828 102.021 15.7923 101.797 16.2571C101.585 16.6689 101.26 17.0119 100.86 17.2461C100.45 17.4734 99.9885 17.5927 99.5195 17.5927C99.0505 17.5927 98.5892 17.4734 98.179 17.2461C97.7788 17.0122 97.4534 16.6692 97.241 16.2571C97.016 15.7925 96.8991 15.2829 96.8991 14.7666C96.8991 14.2504 97.016 13.7408 97.241 13.2761Z" fill="#036E8A"/>
<path d="M105.233 12.6671L108.963 18.3241H109.891V11.2051H108.963V16.8521L105.233 11.2051H104.306V18.3191H105.233V12.6671Z" fill="#036E8A"/>
<path d="M115.297 16.7442H118.397L118.967 18.3242H119.945L117.387 11.2612H116.318L113.749 18.3242H114.728L115.297 16.7442ZM116.846 12.4032L118.13 15.9902H115.563L116.846 12.4032Z" fill="#036E8A"/>
<path d="M121.992 15.4192H123.112L124.805 18.3192H125.915L124.132 15.3432C124.631 15.2608 125.083 14.9978 125.401 14.6042C125.649 14.2652 125.794 13.8624 125.821 13.4433C125.847 13.0242 125.753 12.6064 125.549 12.2392C125.353 11.9142 125.064 11.6554 124.719 11.4962C124.292 11.3002 123.826 11.2057 123.357 11.2202H121.065V18.3202H121.993L121.992 15.4192ZM121.992 11.9842H123.357C123.766 11.9511 124.173 12.0748 124.494 12.3302C124.622 12.4574 124.721 12.6104 124.785 12.7791C124.85 12.9477 124.877 13.1281 124.866 13.3082C124.875 13.491 124.846 13.6737 124.781 13.8449C124.716 14.016 124.617 14.172 124.489 14.3032C124.334 14.4366 124.154 14.5381 123.96 14.6019C123.766 14.6658 123.561 14.6907 123.357 14.6752H121.992V11.9842Z" fill="#036E8A"/>
<path d="M131.084 17.5601H128.184V15.1131H130.775V14.3491H128.186V11.9741H131.086V11.2051H127.264V18.3191H131.086L131.084 17.5601Z" fill="#036E8A"/>
<path d="M136.139 15.0832L139.066 18.3242H140.279L137.028 14.7782L140.248 11.2202H139.076L136.141 14.5122V11.2202H135.214V18.3202H136.141L136.139 15.0832Z" fill="#036E8A"/>
<path d="M142.243 11.2212H141.316V18.3252H142.243V11.2212Z" fill="#036E8A"/>
<path d="M144.75 12.6671L148.48 18.3241H149.408V11.2051H148.48V16.8521L144.75 11.2051H143.823V18.3191H144.75V12.6671Z" fill="#036E8A"/>
<path d="M155.212 17.9041C155.76 17.6389 156.214 17.2125 156.512 16.6821C156.81 16.0955 156.965 15.4469 156.965 14.7891C156.965 14.1312 156.81 13.4826 156.512 12.8961C156.213 12.3616 155.76 11.9298 155.212 11.6571C154.585 11.3549 153.895 11.2065 153.199 11.2241H150.988V18.3241H153.2C153.895 18.3413 154.584 18.1961 155.213 17.9001M151.913 11.9741H153.198C153.579 11.9486 153.962 12.0015 154.322 12.1294C154.682 12.2574 155.012 12.4577 155.292 12.7181C155.545 12.997 155.74 13.3237 155.865 13.679C155.991 14.0343 156.044 14.411 156.021 14.7871C156.044 15.1587 155.991 15.5312 155.867 15.8822C155.742 16.2332 155.549 16.5555 155.297 16.8301C155.014 17.087 154.683 17.284 154.322 17.4093C153.961 17.5346 153.578 17.5855 153.197 17.5591H151.912L151.913 11.9741Z" fill="#036E8A"/>
</svg>
