<svg width="120" height="74" viewBox="0 0 120 74" fill="none" xmlns="http://www.w3.org/2000/svg">
<path d="M15.8 22.4269C17.7478 21.2879 19.9688 20.7002 22.225 20.7269V32.3529H19.21C16.468 32.3529 14.412 32.9419 13.042 34.12C11.672 35.298 10.9867 37.3646 10.986 40.3199V56.9599H0V21.1089H10.986V27.0839C12.2055 25.1775 13.8541 23.5826 15.8 22.4269Z" fill="#036E8A"/>
<path d="M34.341 55.225C31.5678 53.7582 29.2716 51.5293 27.723 48.801C26.0664 45.8175 25.2349 42.4465 25.314 39.035C25.2429 35.6303 26.0862 32.2689 27.756 29.301C29.3218 26.5555 31.6404 24.3154 34.438 22.845C37.3726 21.3196 40.64 20.5468 43.947 20.596C47.254 20.547 50.5213 21.3198 53.456 22.845C56.2529 24.3164 58.5712 26.5563 60.138 29.301C61.8066 32.2693 62.6495 35.6305 62.579 39.035C62.6494 42.4436 61.7944 45.8076 60.105 48.769C58.5155 51.5175 56.1763 53.7568 53.361 55.225C50.4141 56.7481 47.1369 57.5206 43.82 57.474C40.5232 57.5261 37.2658 56.753 34.344 55.225M49.182 45.652C50.66 44.11 51.3987 41.9043 51.398 39.035C51.3973 36.1656 50.6803 33.9596 49.247 32.417C48.5666 31.6893 47.7445 31.1087 46.8313 30.7107C45.9181 30.3127 44.9331 30.1059 43.9369 30.1029C42.9408 30.0999 41.9545 30.3008 41.0389 30.6933C40.1233 31.0857 39.2977 31.6614 38.613 32.385C37.2003 33.9056 36.4937 36.1223 36.493 39.035C36.493 41.9016 37.189 44.1073 38.581 45.652C39.2312 46.3973 40.0371 46.9908 40.9419 47.3905C41.8466 47.7902 42.8281 47.9863 43.817 47.965C44.8236 47.9784 45.8218 47.7793 46.7462 47.3807C47.6707 46.9822 48.5007 46.3931 49.182 45.652Z" fill="#036E8A"/>
<path d="M119.887 21.1128L110.187 56.9638H98.045L92.389 33.7018L86.545 56.9598H74.463L64.697 21.1128H75.685L80.76 46.7488L86.8 21.1128H98.429L104.531 46.6128L109.545 21.1128H119.887Z" fill="#036E8A"/>
<path d="M10.779 2.62891L8.46 10.0599H7.187L5.396 4.15991L3.606 10.0599H2.331L0 2.62891H1.26L2.967 8.86591L4.811 2.62891H6.072L7.872 8.87991L9.56 2.62891H10.779Z" fill="#036E8A"/>
<path d="M18.739 6.80413H12.801C12.801 7.11723 12.8641 7.42711 12.9864 7.71532C13.1088 8.00354 13.2878 8.2642 13.513 8.48178C13.7381 8.69936 14.0047 8.86943 14.297 8.98184C14.5892 9.09426 14.901 9.14673 15.214 9.13613C15.6868 9.15365 16.1533 9.02364 16.549 8.76413C16.9019 8.52148 17.1663 8.17043 17.3019 7.76413H18.631C18.442 8.46341 18.0214 9.0779 17.438 9.50713C16.791 9.97005 16.009 10.2057 15.214 10.1771C14.5526 10.1884 13.8999 10.0249 13.322 9.70313C12.7666 9.38696 12.3128 8.919 12.014 8.35413C11.6872 7.72898 11.5238 7.03136 11.5389 6.32613C11.5238 5.62626 11.6826 4.93358 12.001 4.31013C12.2922 3.74741 12.7426 3.2828 13.2959 2.97413C13.8838 2.65416 14.5448 2.49286 15.214 2.50613C15.8675 2.49297 16.513 2.65159 17.086 2.96613C17.6155 3.26169 18.0503 3.70137 18.34 4.23413C18.6386 4.79508 18.79 5.42269 18.78 6.05813C18.78 6.29213 18.7659 6.54113 18.7399 6.80313M17.193 4.58713C16.9908 4.25364 16.6967 3.98558 16.346 3.81513C15.9767 3.63559 15.5705 3.54485 15.16 3.55013C14.5715 3.5376 14.0009 3.75251 13.567 4.15013C13.111 4.58301 12.8411 5.17603 12.814 5.80413H17.501C17.5121 5.37829 17.4041 4.9578 17.189 4.59013" fill="#036E8A"/>
<path d="M29.233 2.8519C29.6875 3.09571 30.0574 3.47157 30.294 3.9299C30.5655 4.47194 30.6982 5.07293 30.68 5.6789V10.0589H29.464V5.8549C29.5059 5.23743 29.3062 4.62784 28.907 4.1549C28.71 3.95486 28.4729 3.79884 28.2113 3.69714C27.9496 3.59544 27.6694 3.55037 27.389 3.5649C27.1017 3.55113 26.8148 3.59837 26.5471 3.70351C26.2795 3.80865 26.0371 3.96931 25.836 4.1749C25.4216 4.67056 25.2152 5.30739 25.26 5.9519V10.0609H24.026V0.0249023H25.26V3.6859C25.5074 3.3031 25.8574 2.99749 26.27 2.8039C26.7217 2.59137 27.2159 2.48466 27.715 2.4919C28.2429 2.48452 28.7644 2.60885 29.233 2.8519Z" fill="#036E8A"/>
<path d="M39.442 6.80413H33.505C33.5051 7.11723 33.5682 7.42711 33.6905 7.71532C33.8128 8.00354 33.9919 8.2642 34.217 8.48178C34.4422 8.69936 34.7088 8.86943 35.001 8.98184C35.2932 9.09426 35.6051 9.14673 35.918 9.13613C36.3908 9.15372 36.8574 9.02371 37.253 8.76413C37.606 8.52148 37.8703 8.17043 38.006 7.76413H39.335C39.1461 8.46341 38.7255 9.0779 38.142 9.50713C37.495 9.97005 36.713 10.2057 35.918 10.1771C35.2566 10.1884 34.6039 10.0249 34.026 9.70313C33.4706 9.38696 33.0169 8.919 32.718 8.35413C32.3912 7.72898 32.2278 7.03136 32.243 6.32613C32.2279 5.62626 32.3866 4.93358 32.705 4.31013C32.9963 3.74741 33.4466 3.2828 34 2.97413C34.5878 2.65416 35.2489 2.49286 35.918 2.50613C36.5715 2.49297 37.217 2.65159 37.79 2.96613C38.3195 3.26169 38.7543 3.70137 39.044 4.23413C39.3427 4.79508 39.4941 5.42269 39.484 6.05813C39.484 6.29213 39.47 6.54113 39.444 6.80313M37.896 4.58713C37.6938 4.25364 37.3997 3.98558 37.049 3.81513C36.6797 3.63559 36.2736 3.54485 35.863 3.55013C35.2745 3.5376 34.7039 3.75251 34.27 4.15013C33.8141 4.58301 33.5441 5.17603 33.517 5.80413H38.205C38.2162 5.37829 38.1081 4.9578 37.893 4.59013" fill="#036E8A"/>
<path d="M42.344 0.0249023H41.111V10.0579H42.344V0.0249023Z" fill="#036E8A"/>
<path d="M46.772 2.9337C47.2851 2.64086 47.8683 2.49324 48.459 2.5067C49.0909 2.49864 49.713 2.66248 50.259 2.9807C50.798 3.30019 51.2366 3.76443 51.525 4.3207C51.8424 4.93869 52.0005 5.62614 51.985 6.3207C51.9977 7.01721 51.8397 7.70624 51.525 8.3277C51.2388 8.89275 50.7997 9.36605 50.2576 9.69366C49.7155 10.0213 49.0923 10.19 48.459 10.1807C47.8726 10.1926 47.294 10.045 46.785 9.7537C46.332 9.499 45.9516 9.13275 45.68 8.6897V13.5837H44.446V2.6277H45.68V3.9977C45.9439 3.55304 46.3206 3.18598 46.772 2.9337ZM50.385 4.8517C50.1767 4.45435 49.8592 4.12475 49.47 3.9017C49.083 3.68436 48.6458 3.5723 48.202 3.5767C47.7622 3.57375 47.3296 3.68837 46.949 3.9087C46.5574 4.13683 46.2379 4.47055 46.027 4.8717C45.7893 5.3203 45.6702 5.82217 45.681 6.3297C45.6692 6.8415 45.7883 7.34783 46.027 7.8007C46.2379 8.20186 46.5574 8.53558 46.949 8.7637C47.3296 8.98404 47.7622 9.09866 48.202 9.0957C48.6467 9.09978 49.0844 8.98517 49.47 8.7637C49.8601 8.53592 50.1774 8.20194 50.385 7.8007C50.6202 7.34178 50.7368 6.83125 50.724 6.3157C50.7362 5.80693 50.6196 5.30332 50.385 4.8517Z" fill="#036E8A"/>
<path d="M59.557 2.9337C60.0701 2.64086 60.6533 2.49324 61.244 2.5067C61.8759 2.49864 62.498 2.66248 63.044 2.9807C63.583 3.30019 64.0216 3.76443 64.31 4.3207C64.6274 4.93869 64.7855 5.62614 64.77 6.3207C64.7826 7.01721 64.6247 7.70623 64.31 8.3277C64.0238 8.89275 63.5847 9.36605 63.0426 9.69366C62.5005 10.0213 61.8773 10.19 61.244 10.1807C60.6576 10.1926 60.079 10.045 59.57 9.7537C59.117 9.499 58.7366 9.13275 58.465 8.6897V13.5837H57.231V2.6277H58.465V3.9977C58.7289 3.55304 59.1056 3.18598 59.557 2.9337ZM63.17 4.8517C62.9617 4.45435 62.6442 4.12475 62.255 3.9017C61.868 3.68436 61.4308 3.5723 60.987 3.5767C60.5472 3.57375 60.1146 3.68837 59.734 3.9087C59.3424 4.13683 59.0229 4.47055 58.812 4.8717C58.5743 5.3203 58.4552 5.82217 58.466 6.3297C58.4542 6.8415 58.5733 7.34783 58.812 7.8007C59.0229 8.20186 59.3424 8.53558 59.734 8.7637C60.1146 8.98404 60.5472 9.09866 60.987 9.0957C61.4317 9.09978 61.8694 8.98517 62.255 8.7637C62.6451 8.53592 62.9624 8.20194 63.17 7.8007C63.4052 7.34176 63.5217 6.83124 63.509 6.3157C63.5212 5.80693 63.4046 5.30332 63.17 4.8517Z" fill="#036E8A"/>
<path d="M73.135 6.80371H67.196C67.1961 7.11681 67.2592 7.42669 67.3815 7.71491C67.5038 8.00312 67.6829 8.26378 67.908 8.48136C68.1332 8.69895 68.3998 8.86901 68.692 8.98142C68.9842 9.09384 69.2961 9.14631 69.609 9.13571C70.0818 9.1533 70.5484 9.02329 70.944 8.76371C71.297 8.52106 71.5613 8.17001 71.697 7.76371H73.026C72.8367 8.46282 72.4162 9.0772 71.833 9.50671C71.1861 9.96963 70.404 10.2052 69.609 10.1767C68.9476 10.188 68.2949 10.0245 67.717 9.70271C67.1616 9.38654 66.7079 8.91859 66.409 8.35371C66.0822 7.72856 65.9188 7.03094 65.934 6.32571C65.9184 5.62483 66.0771 4.93106 66.396 4.30671C66.6873 3.744 67.1376 3.27938 67.691 2.97071C68.2788 2.65074 68.9399 2.48944 69.609 2.50271C70.2625 2.48969 70.908 2.6483 71.481 2.96271C72.0105 3.25827 72.4453 3.69795 72.735 4.23071C73.0337 4.79166 73.1851 5.41927 73.175 6.05471C73.175 6.28871 73.161 6.53771 73.135 6.79971M71.589 4.58671C71.3869 4.25322 71.0927 3.98516 70.742 3.81471C70.3727 3.63518 69.9666 3.54443 69.556 3.54971C68.9676 3.53718 68.397 3.75209 67.963 4.14971C67.5071 4.58259 67.2371 5.17561 67.21 5.80371H71.902C71.9132 5.37787 71.8051 4.95738 71.59 4.58971" fill="#036E8A"/>
<path d="M76.152 9.7059C75.5899 9.39186 75.1292 8.92385 74.824 8.3569C74.493 7.7338 74.327 7.03631 74.342 6.3309C74.3292 5.62735 74.5016 4.93279 74.842 4.31691C75.1549 3.75074 75.6224 3.28528 76.19 2.97491C76.7805 2.66771 77.4364 2.50732 78.102 2.50732C78.7676 2.50732 79.4235 2.66771 80.014 2.97491C80.5802 3.28437 81.0475 3.74748 81.362 4.31091C81.704 4.92833 81.8765 5.62525 81.862 6.3309C81.8768 7.03963 81.701 7.73934 81.353 8.3569C81.0285 8.92561 80.552 9.39272 79.977 9.7059C79.3862 10.0254 78.7236 10.1889 78.052 10.1809C77.3907 10.1899 76.7386 10.0262 76.16 9.7059M79.299 8.78391C79.6953 8.56787 80.022 8.24359 80.241 7.84891C80.4924 7.38341 80.6163 6.85971 80.6 6.3309C80.6161 5.80264 80.4948 5.27924 80.248 4.8119C80.0363 4.42037 79.7162 4.09817 79.326 3.88391C78.9444 3.68307 78.5197 3.57813 78.0885 3.57813C77.6573 3.57813 77.2326 3.68307 76.851 3.88391C76.4664 4.09816 76.1534 4.42091 75.951 4.8119C75.7125 5.28183 75.5959 5.80416 75.612 6.3309C75.5951 6.86077 75.7091 7.38663 75.944 7.86191C76.1417 8.25284 76.4511 8.5762 76.833 8.7909C77.2076 8.99366 77.628 9.09696 78.054 9.09091C78.4892 9.0927 78.9179 8.98544 79.301 8.7789" fill="#036E8A"/>
<path d="M85.806 2.9337C86.3191 2.64086 86.9023 2.49324 87.493 2.5067C88.1248 2.49899 88.7469 2.6628 89.293 2.9807C89.8318 3.3004 90.2704 3.76459 90.559 4.3207C90.8764 4.93869 91.0345 5.62614 91.019 6.3207C91.0316 7.01721 90.8737 7.70623 90.559 8.3277C90.2737 8.89357 89.835 9.36778 89.293 9.69615C88.7511 10.0245 88.1276 10.1938 87.494 10.1847C86.9079 10.1966 86.3297 10.049 85.821 9.7577C85.3671 9.50349 84.986 9.13716 84.714 8.6937V13.5877H83.482V2.6277H84.716V3.9977C84.9806 3.55356 85.3571 3.18667 85.808 2.9337M89.422 4.8517C89.2129 4.45457 88.8953 4.12509 88.506 3.9017C88.119 3.68436 87.6818 3.5723 87.238 3.5767C86.797 3.57313 86.3632 3.68814 85.982 3.9097C85.5901 4.13781 85.2703 4.47151 85.059 4.8727C84.8214 5.3213 84.7023 5.82317 84.713 6.3307C84.7012 6.8425 84.8203 7.34883 85.059 7.8017C85.2703 8.2029 85.5901 8.53659 85.982 8.7647C86.3622 8.98523 86.7945 9.09987 87.234 9.0967C87.6787 9.10078 88.1164 8.98617 88.502 8.7647C88.8921 8.53659 89.2097 8.20272 89.418 7.8017C89.6524 7.34251 89.7686 6.83211 89.756 6.3167C89.768 5.80807 89.6517 5.3046 89.418 4.8527" fill="#036E8A"/>
<path d="M93.88 0.0249023H92.647V10.0579H93.88V0.0249023Z" fill="#036E8A"/>
<path d="M102.721 6.80371H96.782C96.7821 7.11681 96.8452 7.42669 96.9675 7.71491C97.0898 8.00312 97.2689 8.26378 97.494 8.48136C97.7192 8.69895 97.9858 8.86901 98.278 8.98142C98.5702 9.09384 98.8821 9.14631 99.195 9.13571C99.6678 9.15323 100.134 9.02323 100.53 8.76371C100.883 8.52106 101.147 8.17001 101.283 7.76371H102.612C102.423 8.46282 102.002 9.0772 101.419 9.50671C100.772 9.96963 99.99 10.2052 99.195 10.1767C98.5336 10.188 97.8809 10.0245 97.303 9.70271C96.7476 9.38654 96.2939 8.91859 95.995 8.35371C95.6683 7.72856 95.5048 7.03094 95.52 6.32571C95.5044 5.62483 95.6632 4.93106 95.982 4.30671C96.2733 3.744 96.7236 3.27938 97.277 2.97071C97.8648 2.65074 98.5259 2.48944 99.195 2.50271C99.8485 2.48955 100.494 2.64817 101.067 2.96271C101.597 3.25827 102.031 3.69795 102.321 4.23071C102.62 4.79166 102.771 5.41927 102.761 6.05471C102.761 6.28871 102.747 6.53771 102.721 6.79971M101.175 4.58271C100.973 4.24922 100.679 3.98116 100.328 3.81071C99.9587 3.63118 99.5526 3.54043 99.142 3.54571C98.5536 3.53318 97.983 3.74809 97.549 4.14571C97.0931 4.57859 96.8231 5.17161 96.796 5.79971H101.488C101.499 5.37387 101.391 4.95338 101.176 4.58571" fill="#036E8A"/>
<path d="M109.514 3.64184V8.02184C109.5 8.15843 109.514 8.2964 109.553 8.42784C109.593 8.55928 109.658 8.68162 109.745 8.78784C109.974 8.96074 110.26 9.04075 110.545 9.01184H111.453V10.0578H110.342C109.785 10.1004 109.233 9.93073 108.796 9.58284C108.607 9.37303 108.463 9.12604 108.374 8.85761C108.286 8.58918 108.254 8.30522 108.281 8.02384V3.64184H107.318V2.62784H108.281V0.756836H109.515V2.62784H111.453V3.64184H109.514Z" fill="#036E8A"/>
<path d="M114.294 9.7059C113.732 9.39201 113.27 8.92399 112.965 8.3569C112.634 7.7338 112.468 7.03631 112.483 6.3309C112.47 5.62735 112.643 4.93279 112.983 4.31691C113.296 3.75074 113.763 3.28528 114.331 2.97491C114.921 2.66771 115.577 2.50732 116.243 2.50732C116.909 2.50732 117.564 2.66771 118.155 2.97491C118.721 3.28437 119.188 3.74748 119.503 4.31091C119.845 4.92833 120.017 5.62525 120.003 6.3309C120.018 7.03963 119.842 7.73934 119.494 8.3569C119.168 8.92656 118.689 9.39377 118.111 9.7059C117.52 10.0254 116.858 10.1889 116.186 10.1809C115.525 10.1899 114.873 10.0262 114.294 9.7059ZM117.433 8.78391C117.829 8.56787 118.156 8.24359 118.375 7.84891C118.626 7.38332 118.75 6.85962 118.733 6.3309C118.749 5.80273 118.628 5.27933 118.382 4.8119C118.17 4.42037 117.85 4.09817 117.46 3.88391C117.078 3.68307 116.654 3.57813 116.222 3.57813C115.791 3.57813 115.367 3.68307 114.985 3.88391C114.6 4.09816 114.287 4.42091 114.085 4.8119C113.846 5.28183 113.73 5.80416 113.746 6.3309C113.729 6.86077 113.843 7.38663 114.078 7.86191C114.276 8.25284 114.585 8.5762 114.967 8.7909C115.342 8.99366 115.762 9.09696 116.188 9.09091C116.623 9.0927 117.052 8.98544 117.435 8.7789" fill="#036E8A"/>
<path d="M0.44602 66.938C0.638539 66.565 0.931582 66.2532 1.29202 66.038C1.65693 65.8224 2.07418 65.7113 2.49802 65.717C2.87339 65.7149 3.2432 65.8078 3.57302 65.987C3.88571 66.1505 4.14807 66.3959 4.33202 66.697V64.04H5.16202V70.814H4.33202V69.872C4.16189 70.1784 3.91207 70.4331 3.60902 70.609C3.26939 70.8065 2.88177 70.9062 2.48902 70.897C2.06589 70.9025 1.64984 70.7881 1.28902 70.567C0.926751 70.3435 0.633826 70.0236 0.44302 69.643C0.234032 69.2217 0.12975 68.7562 0.13902 68.286C0.129001 67.8177 0.234436 67.354 0.44602 66.936M4.10502 67.306C3.96627 67.0381 3.75532 66.8143 3.49602 66.66C3.23969 66.5106 2.94773 66.4332 2.65102 66.436C2.35602 66.4326 2.06554 66.5086 1.81002 66.656C1.55195 66.8087 1.34197 67.0308 1.20402 67.297C1.0484 67.603 0.971095 67.9428 0.97902 68.286C0.971055 68.6328 1.04832 68.9761 1.20402 69.286C1.33869 69.5528 1.54571 69.7764 1.80141 69.9311C2.05711 70.0858 2.35118 70.1655 2.65002 70.161C2.9469 70.1642 3.23902 70.0864 3.49502 69.936C3.75566 69.7816 3.96691 69.5562 4.10402 69.286C4.26031 68.9788 4.33797 68.6376 4.33002 68.293C4.33827 67.9497 4.26058 67.6097 4.10402 67.304" fill="#036E8A"/>
<path d="M6.58003 64.8179C6.47578 64.7096 6.41754 64.5652 6.41754 64.4149C6.41754 64.2646 6.47578 64.1201 6.58003 64.0119C6.63146 63.9579 6.69363 63.9154 6.76253 63.887C6.83143 63.8585 6.90553 63.8449 6.98003 63.8469C7.05189 63.8458 7.12316 63.86 7.18917 63.8884C7.25517 63.9169 7.31442 63.9589 7.36303 64.0119C7.46503 64.1213 7.52174 64.2653 7.52174 64.4149C7.52174 64.5644 7.46503 64.7085 7.36303 64.8179C7.31417 64.8704 7.25486 64.9122 7.18889 64.9404C7.12293 64.9687 7.05178 64.9828 6.98003 64.9819C6.90563 64.9837 6.83166 64.9701 6.7628 64.9419C6.69394 64.9137 6.6317 64.8714 6.58003 64.8179ZM7.38003 70.8179H6.55303V65.7959H7.37603L7.38003 70.8179Z" fill="#036E8A"/>
<path d="M11.942 65.9998C12.2428 66.1667 12.4916 66.4134 12.661 66.7128V65.7978H13.491V70.9248C13.4991 71.3499 13.4001 71.7701 13.203 72.1468C13.0146 72.5002 12.7276 72.7913 12.377 72.9848C11.9931 73.1916 11.562 73.295 11.126 73.2848C10.548 73.3068 9.97823 73.1431 9.50001 72.8178C9.29003 72.6714 9.11316 72.4825 8.98086 72.2634C8.84855 72.0443 8.76377 71.7998 8.73201 71.5458H9.54401C9.63461 71.8515 9.83375 72.1136 10.104 72.2828C10.4092 72.4748 10.7646 72.5719 11.125 72.5618C11.3291 72.5693 11.5325 72.535 11.7229 72.461C11.9132 72.3871 12.0865 72.2751 12.232 72.1318C12.3812 71.9695 12.4961 71.7788 12.5698 71.571C12.6435 71.3633 12.6745 71.1428 12.661 70.9228V69.8718C12.488 70.1747 12.2387 70.427 11.938 70.6038C11.5996 70.8048 11.2115 70.9067 10.818 70.8978C10.3949 70.9033 9.97883 70.7889 9.61801 70.5678C9.25574 70.3443 8.96281 70.0243 8.77201 69.6438C8.5623 69.2234 8.45699 68.7586 8.46501 68.2888C8.45499 67.8204 8.56042 67.3568 8.77201 66.9388C8.96453 66.5658 9.25757 66.254 9.61801 66.0388C9.98085 65.8234 10.3961 65.7124 10.818 65.7178C11.2116 65.7092 11.6001 65.8077 11.942 66.0028M12.435 67.3118C12.2963 67.0439 12.0853 66.8201 11.826 66.6658C11.569 66.5206 11.2787 66.4443 10.9835 66.4443C10.6883 66.4443 10.3981 66.5206 10.141 66.6658C9.88294 66.8185 9.67295 67.0406 9.53501 67.3068C9.37939 67.6128 9.30208 67.9526 9.31001 68.2958C9.30204 68.6425 9.3793 68.9859 9.53501 69.2958C9.66968 69.5626 9.8767 69.7861 10.1324 69.9409C10.3881 70.0956 10.6822 70.1753 10.981 70.1708C11.2779 70.174 11.57 70.0962 11.826 69.9458C12.0866 69.7914 12.2979 69.5659 12.435 69.2958C12.5913 68.9886 12.669 68.6474 12.661 68.3028C12.6693 67.9595 12.5916 67.6195 12.435 67.3138" fill="#036E8A"/>
<path d="M14.909 64.8178C14.8048 64.7096 14.7465 64.5651 14.7465 64.4148C14.7465 64.2645 14.8048 64.1201 14.909 64.0118C14.9606 63.9581 15.0228 63.9157 15.0917 63.8873C15.1605 63.8589 15.2345 63.8451 15.309 63.8468C15.3812 63.8457 15.4528 63.8598 15.5191 63.8882C15.5855 63.9167 15.6451 63.9588 15.694 64.0118C15.7951 64.1217 15.8513 64.2655 15.8513 64.4148C15.8513 64.5641 15.7951 64.708 15.694 64.8178C15.6448 64.8705 15.5851 64.9123 15.5188 64.9405C15.4525 64.9688 15.3811 64.9828 15.309 64.9818C15.2346 64.9835 15.1607 64.9697 15.0919 64.9415C15.0231 64.9133 14.9608 64.8712 14.909 64.8178ZM15.709 70.8178H14.886V65.7958H15.709V70.8178Z" fill="#036E8A"/>
<path d="M18.107 66.4842V69.4422C18.0882 69.6279 18.1431 69.8136 18.26 69.9592C18.4122 70.0752 18.6027 70.1292 18.793 70.1102H19.399V70.8102H18.658C18.2868 70.8384 17.9188 70.724 17.629 70.4902C17.5025 70.3476 17.4067 70.1806 17.3475 69.9994C17.2883 69.8183 17.2671 69.6269 17.285 69.4372V66.4842H16.644V65.8002H17.285V64.5352H18.108V65.8002H19.4V66.4862L18.107 66.4842Z" fill="#036E8A"/>
<path d="M20.393 66.9379C20.5855 66.5649 20.8786 66.2531 21.239 66.0379C21.6018 65.8226 22.0171 65.7115 22.439 65.7169C22.8342 65.7075 23.2246 65.806 23.568 66.0019C23.8662 66.1702 24.1127 66.4167 24.281 66.7149V65.7999H25.111V70.8159H24.281V69.8829C24.1078 70.1863 23.8564 70.4377 23.553 70.6109C23.2118 70.8081 22.823 70.9078 22.429 70.8989C22.0081 70.9042 21.5944 70.7898 21.236 70.5689C20.8761 70.3441 20.5851 70.0244 20.395 69.6449C20.1853 69.2245 20.08 68.7597 20.088 68.2899C20.078 67.8216 20.1834 67.3579 20.395 66.9399M24.054 67.3099C23.9152 67.042 23.7043 66.8182 23.445 66.6639C23.1879 66.5187 22.8977 66.4424 22.6025 66.4424C22.3073 66.4424 22.017 66.5187 21.76 66.6639C21.5019 66.8166 21.2919 67.0387 21.154 67.3049C20.9984 67.6109 20.9211 67.9507 20.929 68.2939C20.921 68.6407 20.9983 68.984 21.154 69.2939C21.2887 69.5607 21.4957 69.7843 21.7514 69.939C22.0071 70.0937 22.3012 70.1734 22.6 70.1689C22.8969 70.1721 23.189 70.0943 23.445 69.9439C23.7056 69.7895 23.9169 69.5641 24.054 69.2939C24.2103 68.9867 24.2879 68.6455 24.28 68.3009C24.2882 67.9576 24.2106 67.6176 24.054 67.3119" fill="#036E8A"/>
<path d="M27.322 64.04H26.499V70.814H27.322V64.04Z" fill="#036E8A"/>
<path d="M38.118 65.9489C38.4231 66.1148 38.6715 66.3684 38.831 66.6769C39.0161 67.0423 39.1065 67.4484 39.094 67.8579V70.8139H38.281V67.9779C38.309 67.5622 38.1786 67.1513 37.916 66.8279C37.7895 66.6939 37.6355 66.5888 37.4647 66.5198C37.2938 66.4508 37.1101 66.4194 36.926 66.4279C36.736 66.4192 36.5464 66.4519 36.3703 66.5237C36.1941 66.5955 36.0357 66.7048 35.906 66.8439C35.6334 67.182 35.4981 67.6105 35.527 68.0439V70.8079H34.714V67.9779C34.7423 67.562 34.6115 67.1509 34.348 66.8279C34.2218 66.6938 34.068 66.5886 33.8973 66.5195C33.7266 66.4505 33.5429 66.4192 33.359 66.4279C33.169 66.4192 32.9794 66.4519 32.8033 66.5237C32.6271 66.5955 32.4687 66.7048 32.339 66.8439C32.0663 67.182 31.931 67.6104 31.96 68.0439V70.8079H31.133V65.7979H31.956V66.5209C32.1146 66.2641 32.3413 66.0564 32.611 65.9209C32.8923 65.7785 33.2038 65.7061 33.519 65.7099C33.9048 65.7025 34.2853 65.8011 34.619 65.9949C34.9415 66.1875 35.1925 66.4799 35.334 66.8279C35.4635 66.4839 35.7052 66.1936 36.02 66.0039C36.3408 65.808 36.7101 65.7061 37.086 65.7099C37.4442 65.7038 37.7983 65.7873 38.116 65.9529" fill="#036E8A"/>
<path d="M40.439 66.9379C40.6315 66.5649 40.9246 66.2531 41.285 66.0379C41.6479 65.8226 42.0631 65.7115 42.485 65.7169C42.8803 65.7075 43.2706 65.806 43.614 66.0019C43.9122 66.1702 44.1587 66.4167 44.327 66.7149V65.7999H45.157V70.8159H44.327V69.8829C44.1538 70.1863 43.9024 70.4377 43.599 70.6109C43.2578 70.8081 42.869 70.9078 42.475 70.8989C42.0541 70.9042 41.6404 70.7898 41.282 70.5689C40.9218 70.3444 40.6307 70.0246 40.441 69.6449C40.2313 69.2245 40.126 68.7597 40.134 68.2899C40.124 67.8216 40.2294 67.3579 40.441 66.9399M44.1 67.3099C43.9613 67.042 43.7503 66.8182 43.491 66.6639C43.234 66.5187 42.9437 66.4424 42.6485 66.4424C42.3533 66.4424 42.0631 66.5187 41.806 66.6639C41.5479 66.8166 41.338 67.0387 41.2 67.3049C41.0444 67.6109 40.9671 67.9507 40.975 68.2939C40.967 68.6407 41.0443 68.984 41.2 69.2939C41.3347 69.5607 41.5417 69.7843 41.7974 69.939C42.0531 70.0937 42.3472 70.1734 42.646 70.1689C42.9429 70.1721 43.235 70.0943 43.491 69.9439C43.7517 69.7895 43.9629 69.5641 44.1 69.2939C44.2563 68.9867 44.334 68.6455 44.326 68.3009C44.3343 67.9576 44.2566 67.6176 44.1 67.3119" fill="#036E8A"/>
<path d="M47.985 65.944C48.2842 65.7776 48.6228 65.6953 48.965 65.706V66.566H48.748C47.8267 66.566 47.3663 67.0723 47.367 68.085V70.814H46.544V65.797H47.367V66.612C47.5039 66.3338 47.7181 66.1017 47.985 65.944Z" fill="#036E8A"/>
<path d="M52.68 70.814L50.737 68.598V70.814H49.916V64.04H50.737V68.022L52.643 65.797H53.791L51.461 68.297L53.8 70.814H52.68Z" fill="#036E8A"/>
<path d="M59.063 68.6168H55.103C55.1052 68.8334 55.1505 69.0473 55.2364 69.2462C55.3222 69.445 55.4469 69.6247 55.603 69.7748C55.9042 70.0517 56.301 70.2012 56.71 70.1918C57.0257 70.203 57.337 70.1149 57.6 69.9398C57.8345 69.7748 58.0097 69.5389 58.1 69.2668H58.985C58.8591 69.738 58.5771 70.1526 58.185 70.4428C57.756 70.7555 57.2345 70.9153 56.704 70.8968C56.2629 70.9042 55.8278 70.7934 55.444 70.5758C55.0727 70.3615 54.7703 70.0459 54.572 69.6658C54.3543 69.2426 54.2457 68.7717 54.256 68.2958C54.2457 67.8233 54.3511 67.3553 54.563 66.9328C54.7566 66.5549 55.0566 66.2421 55.426 66.0328C55.8172 65.8169 56.2583 65.7079 56.705 65.7168C57.1405 65.7085 57.5705 65.8158 57.951 66.0278C58.3052 66.228 58.5952 66.5249 58.787 66.8838C58.9872 67.2632 59.0883 67.6869 59.081 68.1158C59.0808 68.2828 59.0722 68.4497 59.055 68.6158M58.025 67.1158C57.8909 66.8928 57.6959 66.7128 57.463 66.5968C57.2168 66.4766 56.9459 66.4157 56.672 66.4188C56.2796 66.4096 55.8989 66.553 55.61 66.8188C55.3063 67.1137 55.1274 67.5139 55.11 67.9368H58.235C58.2432 67.6495 58.1712 67.3655 58.027 67.1168" fill="#036E8A"/>
<path d="M61.172 66.4842V69.4422C61.1532 69.6279 61.2081 69.8136 61.325 69.9592C61.4772 70.0752 61.6677 70.1292 61.858 70.1102H62.464V70.8102H61.723C61.3518 70.8384 60.9838 70.724 60.694 70.4902C60.5675 70.3476 60.4717 70.1806 60.4125 69.9994C60.3533 69.8183 60.3321 69.6269 60.35 69.4372V66.4842H59.709V65.8002H60.35V64.5352H61.173V65.8002H62.465V66.4862L61.172 66.4842Z" fill="#036E8A"/>
<path d="M63.485 64.8179C63.3807 64.7096 63.3225 64.5652 63.3225 64.4149C63.3225 64.2646 63.3807 64.1201 63.485 64.0119C63.5364 63.9579 63.5986 63.9154 63.6675 63.887C63.7364 63.8585 63.8105 63.8449 63.885 63.8469C63.9569 63.8457 64.0282 63.8598 64.0942 63.8883C64.1602 63.9167 64.2195 63.9588 64.268 64.0119C64.37 64.1213 64.4267 64.2653 64.4267 64.4149C64.4267 64.5644 64.37 64.7085 64.268 64.8179C64.2192 64.8705 64.1599 64.9123 64.0939 64.9406C64.028 64.9688 63.9568 64.9829 63.885 64.9819C63.8106 64.9837 63.7366 64.9701 63.6678 64.9419C63.5989 64.9137 63.5367 64.8714 63.485 64.8179ZM64.285 70.8179H63.462V65.7959H64.285V70.8179Z" fill="#036E8A"/>
<path d="M69.555 66.2598C69.7522 66.4744 69.9036 66.727 69.9999 67.0021C70.0962 67.2772 70.1353 67.5691 70.115 67.8598V70.8178H69.302V67.9758C69.331 67.5597 69.1989 67.1483 68.933 66.8268C68.8026 66.6919 68.6448 66.5864 68.4703 66.5174C68.2957 66.4484 68.1085 66.4175 67.921 66.4268C67.7293 66.4178 67.5378 66.45 67.3595 66.521C67.1812 66.5921 67.0201 66.7004 66.887 66.8388C66.6104 67.175 66.4733 67.6045 66.504 68.0388V70.8128H65.681V65.7968H66.504V66.5118C66.665 66.2537 66.895 66.0459 67.168 65.9118C67.4561 65.771 67.7734 65.7004 68.094 65.7058C68.3627 65.6947 68.6308 65.738 68.8822 65.8332C69.1336 65.9284 69.3632 66.0735 69.557 66.2598" fill="#036E8A"/>
<path d="M74.629 65.9998C74.9298 66.1667 75.1786 66.4134 75.348 66.7128V65.7978H76.178V70.9248C76.1861 71.3498 76.0871 71.7701 75.89 72.1468C75.7009 72.4996 75.4141 72.7906 75.064 72.9848C74.6801 73.1916 74.249 73.295 73.813 73.2848C73.2351 73.3068 72.6653 73.1431 72.187 72.8178C71.9771 72.6712 71.8003 72.4823 71.6678 72.2632C71.5354 72.0442 71.4503 71.7998 71.418 71.5458H72.231C72.3216 71.8515 72.5208 72.1136 72.791 72.2828C73.0962 72.4748 73.4516 72.5719 73.812 72.5618C74.0159 72.5691 74.2192 72.5347 74.4094 72.4608C74.5995 72.3869 74.7726 72.2749 74.918 72.1318C75.0673 71.9696 75.1824 71.7789 75.2563 71.5711C75.3302 71.3634 75.3614 71.1429 75.348 70.9228V69.8718C75.1748 70.1745 74.9256 70.4268 74.625 70.6038C74.2863 70.805 73.8979 70.9069 73.504 70.8978C73.0809 70.903 72.665 70.7886 72.304 70.5678C71.9423 70.3439 71.6498 70.024 71.459 69.6438C71.2487 69.2236 71.1434 68.7586 71.152 68.2888C71.1414 67.8204 71.2469 67.3566 71.459 66.9388C71.6515 66.566 71.9441 66.2543 72.304 66.0388C72.667 65.8238 73.0822 65.7127 73.504 65.7178C73.8979 65.7093 74.2867 65.8078 74.629 66.0028M75.122 67.3118C74.9833 67.0439 74.7723 66.8201 74.513 66.6658C74.256 66.5206 73.9658 66.4443 73.6705 66.4443C73.3753 66.4443 73.0851 66.5206 72.828 66.6658C72.5695 66.8179 72.3594 67.0401 72.222 67.3068C72.0655 67.6125 71.9878 67.9524 71.996 68.2958C71.9876 68.6427 72.0652 68.9863 72.222 69.2958C72.3567 69.5626 72.5637 69.7861 72.8194 69.9409C73.0751 70.0956 73.3692 70.1753 73.668 70.1708C73.9649 70.1738 74.257 70.096 74.513 69.9458C74.7737 69.7914 74.9849 69.5659 75.122 69.2958C75.2777 68.9884 75.3553 68.6473 75.348 68.3028C75.3557 67.9595 75.278 67.6197 75.122 67.3138" fill="#036E8A"/>
<path d="M79.981 66.938C80.1735 66.5652 80.4661 66.2535 80.826 66.038C81.189 65.8229 81.6041 65.7119 82.026 65.717C82.4213 65.7071 82.8118 65.8057 83.155 66.002C83.4541 66.1697 83.7014 66.4164 83.87 66.715V65.8H84.7V70.816H83.87V69.883C83.6964 70.1861 83.4451 70.4374 83.142 70.611C82.8008 70.8082 82.412 70.9078 82.018 70.899C81.5954 70.9063 81.1794 70.7929 80.819 70.572C80.4588 70.3475 80.1677 70.0277 79.978 69.648C79.7677 69.2278 79.6624 68.7628 79.671 68.293C79.6604 67.8245 79.7658 67.3607 79.978 66.943M83.637 67.313C83.4983 67.045 83.2873 66.8212 83.028 66.667C82.771 66.5218 82.4807 66.4455 82.1855 66.4455C81.8903 66.4455 81.6001 66.5218 81.343 66.667C81.0845 66.819 80.8743 67.0413 80.737 67.308C80.5805 67.6137 80.5028 67.9536 80.511 68.297C80.5026 68.6439 80.5802 68.9874 80.737 69.297C80.8717 69.5638 81.0787 69.7873 81.3344 69.9421C81.5901 70.0968 81.8842 70.1765 82.183 70.172C82.4799 70.1749 82.7719 70.0972 83.028 69.947C83.2887 69.7926 83.4999 69.5671 83.637 69.297C83.7927 68.9895 83.8703 68.6485 83.863 68.304C83.8706 67.9607 83.793 67.6209 83.637 67.315" fill="#036E8A"/>
<path d="M89.256 65.9998C89.5568 66.1667 89.8056 66.4134 89.975 66.7128V65.7978H90.805V70.9248C90.8131 71.3498 90.7141 71.7701 90.517 72.1468C90.3278 72.4996 90.0411 72.7906 89.691 72.9848C89.3071 73.1916 88.876 73.295 88.44 73.2848C87.862 73.3068 87.2922 73.1431 86.814 72.8178C86.6041 72.6712 86.4272 72.4823 86.2948 72.2632C86.1623 72.0442 86.0772 71.7998 86.045 71.5458H86.858C86.9486 71.8515 87.1477 72.1136 87.418 72.2828C87.7232 72.4748 88.0785 72.5719 88.439 72.5618C88.6429 72.5691 88.8461 72.5347 89.0363 72.4608C89.2265 72.3869 89.3996 72.2749 89.545 72.1318C89.6943 71.9696 89.8093 71.7789 89.8832 71.5711C89.9571 71.3634 89.9883 71.1429 89.975 70.9228V69.8718C89.8017 70.1745 89.5525 70.4268 89.252 70.6038C88.9133 70.805 88.5248 70.9069 88.131 70.8978C87.7079 70.903 87.2919 70.7886 86.931 70.5678C86.5693 70.3439 86.2768 70.024 86.086 69.6438C85.8757 69.2236 85.7703 68.7586 85.779 68.2888C85.7684 67.8204 85.8738 67.3566 86.086 66.9388C86.2785 66.5661 86.5711 66.2544 86.931 66.0388C87.294 65.8238 87.7091 65.7127 88.131 65.7178C88.5249 65.7093 88.9137 65.8078 89.256 66.0028M89.749 67.3118C89.6102 67.0439 89.3993 66.8201 89.14 66.6658C88.8829 66.5206 88.5927 66.4443 88.2975 66.4443C88.0023 66.4443 87.712 66.5206 87.455 66.6658C87.1964 66.8179 86.9863 67.0401 86.849 67.3068C86.6924 67.6125 86.6147 67.9524 86.623 68.2958C86.6146 68.6427 86.6922 68.9863 86.849 69.2958C86.9837 69.5626 87.1907 69.7861 87.4464 69.9409C87.7021 70.0956 87.9962 70.1753 88.295 70.1708C88.5918 70.1738 88.8839 70.096 89.14 69.9458C89.4006 69.7914 89.6119 69.5659 89.749 69.2958C89.9047 68.9884 89.9823 68.6473 89.975 68.3028C89.9826 67.9595 89.9049 67.6197 89.749 67.3138" fill="#036E8A"/>
<path d="M96.686 68.6168H92.727C92.7292 68.8334 92.7746 69.0473 92.8604 69.2461C92.9463 69.445 93.0709 69.6247 93.227 69.7748C93.5282 70.0517 93.925 70.2012 94.334 70.1918C94.6497 70.2028 94.9609 70.1147 95.224 69.9398C95.4586 69.7749 95.6339 69.539 95.724 69.2668H96.61C96.4841 69.738 96.2021 70.1526 95.81 70.4428C95.381 70.7555 94.8595 70.9153 94.329 70.8968C93.8875 70.9045 93.452 70.7937 93.068 70.5758C92.6965 70.3619 92.3939 70.0461 92.196 69.6658C91.9897 69.2401 91.8818 68.7734 91.8802 68.3003C91.8786 67.8273 91.9835 67.3599 92.187 66.9328C92.3806 66.5549 92.6806 66.2421 93.05 66.0328C93.4412 65.8169 93.8823 65.7079 94.329 65.7168C94.7645 65.7087 95.1944 65.816 95.575 66.0278C95.9293 66.228 96.2192 66.5249 96.411 66.8838C96.6112 67.2632 96.7123 67.6869 96.705 68.1158C96.705 68.2748 96.696 68.4418 96.679 68.6158M95.649 67.1158C95.5144 66.8914 95.3183 66.7102 95.084 66.5938C94.8382 66.4736 94.5676 66.4126 94.294 66.4158C93.9016 66.4066 93.5209 66.55 93.232 66.8158C92.9284 67.1108 92.7495 67.5109 92.732 67.9338H95.859C95.8666 67.6465 95.7946 67.3627 95.651 67.1138" fill="#036E8A"/>
<path d="M101.672 66.2599C101.869 66.4748 102.02 66.7274 102.116 67.0024C102.213 67.2775 102.252 67.5692 102.232 67.8599V70.8179H101.419V67.9759C101.448 67.5597 101.315 67.1483 101.049 66.8269C100.919 66.692 100.761 66.5865 100.587 66.5175C100.412 66.4485 100.225 66.4176 100.038 66.4269C99.8463 66.418 99.6548 66.4501 99.4765 66.5211C99.2981 66.5922 99.1371 66.7006 99.004 66.8389C98.7267 67.1748 98.5889 67.6044 98.619 68.0389V70.8129H97.796V65.7969H98.617V66.5119C98.7783 66.2541 99.0082 66.0463 99.281 65.9119C99.5691 65.7696 99.8867 65.6973 100.208 65.7009C100.477 65.6898 100.745 65.7331 100.996 65.8283C101.248 65.9235 101.477 66.0686 101.671 66.2549" fill="#036E8A"/>
<path d="M103.578 66.9388C103.772 66.5641 104.068 66.2521 104.432 66.0388C104.86 65.8089 105.342 65.6995 105.827 65.7222C106.313 65.7449 106.782 65.8989 107.187 66.1678C107.588 66.4763 107.865 66.9178 107.969 67.4128H107.083C107.008 67.1214 106.834 66.8653 106.59 66.6888C106.324 66.505 106.006 66.4121 105.683 66.4238C105.469 66.4161 105.256 66.4561 105.059 66.5408C104.862 66.6255 104.687 66.7529 104.545 66.9138C104.233 67.3063 104.079 67.8006 104.111 68.3008C104.079 68.8049 104.233 69.3033 104.545 69.7008C104.686 69.8628 104.861 69.9913 105.058 70.0768C105.255 70.1623 105.468 70.2026 105.683 70.1948C106.003 70.2065 106.318 70.1169 106.583 69.9388C106.83 69.7609 107.007 69.5018 107.083 69.2068H107.969C107.85 69.6961 107.568 70.1303 107.169 70.4378C106.739 70.7566 106.213 70.9198 105.678 70.9008C105.24 70.9092 104.807 70.7982 104.427 70.5798C104.062 70.3655 103.765 70.0511 103.573 69.6738C103.36 69.2478 103.254 68.7761 103.265 68.2998C103.254 67.8283 103.36 67.3615 103.573 66.9408" fill="#036E8A"/>
<path d="M113.327 65.7969L110.346 73.1759H109.496L110.472 70.7589L108.472 65.7969H109.386L110.94 69.8619L112.475 65.7969H113.327Z" fill="#036E8A"/>
</svg>
