<svg width="189" height="54" viewBox="0 0 189 54" fill="none" xmlns="http://www.w3.org/2000/svg">
<g opacity="0.57">
<mask id="mask0_0_1" style="mask-type:luminance" maskUnits="userSpaceOnUse" x="37" y="0" width="53" height="54">
<path d="M89.942 0.976074H37.608V53.3091H89.942V0.976074Z" fill="white"/>
</mask>
<g mask="url(#mask0_0_1)">
<path d="M89.9419 27.1431C89.9419 32.3184 88.4073 37.3775 85.532 41.6807C82.6568 45.9838 78.57 49.3377 73.7886 51.3182C69.0072 53.2987 63.7459 53.8169 58.67 52.8073C53.5941 51.7976 48.9316 49.3055 45.2721 45.6459C41.6126 41.9864 39.1204 37.3239 38.1107 32.248C37.1011 27.1721 37.6193 21.9108 39.5998 17.1294C41.5803 12.348 44.9342 8.26128 49.2374 5.38601C53.5405 2.51074 58.5996 0.976074 63.775 0.976074C67.2113 0.976074 70.6139 1.6529 73.7886 2.96792C76.9634 4.28293 79.848 6.21038 82.2778 8.64021C84.7076 11.07 86.6351 13.9547 87.9501 17.1294C89.2651 20.3041 89.9419 23.7068 89.9419 27.1431Z" fill="#036E8A"/>
</g>
</g>
<path d="M52.549 27.1441C52.549 32.3192 51.0145 37.3782 48.1394 41.6812C45.2643 45.9843 41.1778 49.3382 36.3966 51.3188C31.6155 53.2995 26.3544 53.8179 21.2786 52.8086C16.2028 51.7992 11.5403 49.3074 7.88058 45.6483C4.2209 41.9892 1.72843 37.3271 0.718315 32.2514C-0.291796 27.1758 0.225837 21.9146 2.20574 17.1331C4.18565 12.3517 7.5389 8.26468 11.8415 5.38893C16.1441 2.51318 21.2029 0.977842 26.378 0.977051C33.318 0.977051 39.9736 3.73392 44.8809 8.64119C49.7881 13.5485 52.545 20.2041 52.545 27.1441" fill="#036E8A"/>
<path d="M29.706 21.5029H32.435L27.729 32.7609H25.366L23.432 27.8189L21.52 32.7609H19.156L14.473 21.5029H17.18L20.531 30.0539L21.907 26.4019L19.929 21.5249H22.25L23.431 24.9839L24.631 21.5249H26.951L24.996 26.4019L26.35 30.0539L29.706 21.5029Z" fill="white"/>
<path d="M38.557 32.975C37.7096 32.9885 36.8685 32.8275 36.086 32.502C35.3852 32.208 34.7525 31.773 34.227 31.224C33.7186 30.6875 33.3207 30.0561 33.056 29.366C32.5123 27.9332 32.5123 26.3508 33.056 24.918C33.3209 24.2277 33.7188 23.5961 34.227 23.059C34.7527 22.5103 35.3854 22.0753 36.086 21.781C36.8685 21.4555 37.7096 21.2945 38.557 21.308C39.4009 21.2938 40.2386 21.4548 41.017 21.781C41.7131 22.0776 42.3418 22.5123 42.865 23.059C43.3729 23.5963 43.7708 24.2278 44.036 24.918C44.5797 26.3508 44.5797 27.9332 44.036 29.366C43.7721 30.054 43.3783 30.6848 42.876 31.224C42.356 31.7739 41.7269 32.2091 41.029 32.502C40.2464 32.8272 39.4054 32.9882 38.558 32.975M35.614 27.155C35.6079 27.6194 35.6841 28.0812 35.839 28.519C35.9791 28.9093 36.1907 29.2702 36.463 29.583C36.7211 29.88 37.0395 30.1186 37.397 30.283C37.7621 30.4459 38.1573 30.53 38.557 30.53C38.9567 30.53 39.352 30.4459 39.717 30.283C40.0742 30.1181 40.3925 29.8796 40.651 29.583C40.9244 29.2676 41.1355 28.9031 41.273 28.509C41.4285 28.0675 41.505 27.602 41.499 27.134C41.5037 26.6729 41.4272 26.2146 41.273 25.78C41.1353 25.386 40.9242 25.0216 40.651 24.706C40.3923 24.4096 40.0741 24.1711 39.717 24.006C39.3529 23.8403 38.957 23.756 38.557 23.759C38.1559 23.7555 37.7592 23.8434 37.397 24.016C37.0409 24.187 36.7231 24.4286 36.463 24.726C36.1891 25.0418 35.9773 25.4065 35.839 25.801C35.686 26.2355 35.6099 26.6934 35.614 27.154" fill="white"/>
<path d="M72.955 21.5029H75.684L70.974 32.7609H68.611L66.677 27.8189L64.774 32.7609H62.41L57.727 21.5029H60.434L63.785 30.0539L65.161 26.4019L63.174 21.5239H65.495L66.676 24.9829L67.876 21.5239H70.196L68.241 26.4009L69.595 30.0529L72.955 21.5029Z" fill="white"/>
<path d="M98.975 34.2998L110.614 20.4248H99.453V16.6768H116.238V19.9468L104.676 33.8208H116.437V37.5688H98.975V34.2998Z" fill="#036E8A"/>
<path d="M129.116 37.9669C127.544 37.9924 125.983 37.6938 124.531 37.0899C123.231 36.544 122.056 35.7366 121.081 34.7179C120.138 33.7221 119.399 32.5506 118.908 31.2699C117.899 28.6115 117.899 25.6753 118.908 23.0169C119.399 21.7358 120.137 20.5638 121.081 19.5679C122.056 18.5489 123.231 17.7412 124.531 17.1949C125.983 16.5919 127.544 16.2934 129.116 16.3179C130.682 16.2923 132.236 16.5909 133.681 17.1949C134.959 17.7379 136.113 18.5335 137.076 19.534C138.038 20.5345 138.788 21.7192 139.281 23.0169C140.292 25.6751 140.292 28.6117 139.281 31.2699C138.792 32.5471 138.061 33.7178 137.128 34.7179C136.163 35.7387 134.995 36.5467 133.7 37.0899C132.248 37.6938 130.687 37.9923 129.115 37.9669M123.652 27.1669C123.641 28.0291 123.783 28.8863 124.071 29.6989C124.33 30.4231 124.722 31.0925 125.227 31.6729C125.707 32.2222 126.298 32.6635 126.961 32.9679C127.638 33.2704 128.372 33.4267 129.114 33.4267C129.856 33.4267 130.59 33.2704 131.267 32.9679C131.93 32.6628 132.52 32.2216 133.001 31.6729C133.508 31.087 133.9 30.4109 134.157 29.6799C134.444 28.8598 134.585 27.9958 134.575 27.1269C134.583 26.2716 134.442 25.4215 134.157 24.6149C133.901 23.8839 133.509 23.208 133.001 22.6229C132.518 22.067 131.921 21.6222 131.25 21.3191C130.579 21.0159 129.85 20.8617 129.114 20.8669C128.369 20.8604 127.633 21.0242 126.961 21.3459C126.3 21.6618 125.71 22.1093 125.227 22.6609C124.719 23.2463 124.326 23.923 124.071 24.6549C123.786 25.461 123.644 26.3119 123.652 27.1669Z" fill="#036E8A"/>
<path d="M163.044 37.5679H157.701V25.8459C157.803 24.5617 157.496 23.2782 156.824 22.1789C156.543 21.8026 156.175 21.5005 155.751 21.2988C155.328 21.0972 154.861 21.0021 154.392 21.0219C153.832 21.0275 153.278 21.136 152.757 21.3419C152.19 21.5609 151.659 21.8643 151.182 22.2419C150.678 22.6402 150.229 23.1028 149.846 23.6179C149.45 24.1445 149.153 24.7389 148.97 25.3719V37.5719H143.627V16.6769H148.451V20.5439C149.237 19.2006 150.402 18.1192 151.8 17.4349C153.335 16.6739 155.03 16.2912 156.743 16.3189C157.851 16.273 158.951 16.5203 159.933 17.0359C160.724 17.4823 161.384 18.1285 161.847 18.9099C162.314 19.7239 162.631 20.615 162.783 21.5409C162.956 22.5281 163.043 23.5286 163.042 24.5309L163.044 37.5679Z" fill="#036E8A"/>
<path d="M177.397 37.9679C175.84 37.9902 174.294 37.6988 172.852 37.1109C171.563 36.5867 170.395 35.8054 169.418 34.8148C168.442 33.8241 167.677 32.6448 167.171 31.3489C166.651 30.0427 166.387 28.6488 166.393 27.2429C166.384 25.8061 166.641 24.38 167.151 23.0369C167.641 21.7449 168.387 20.5653 169.344 19.5689C170.334 18.5492 171.521 17.7418 172.833 17.1959C174.293 16.5942 175.859 16.2958 177.438 16.3189C179.004 16.2933 180.557 16.5919 182.002 17.1959C183.29 17.7447 184.455 18.5446 185.43 19.5489C186.374 20.533 187.107 21.7 187.584 22.9779C188.074 24.2776 188.324 25.6558 188.321 27.0449C188.321 27.3902 188.314 27.7236 188.301 28.0449C188.294 28.3142 188.261 28.5822 188.201 28.8449H172.051C172.115 29.6065 172.319 30.3498 172.651 31.0379C172.955 31.6566 173.375 32.2115 173.887 32.6729C174.388 33.1234 174.97 33.4752 175.602 33.7099C176.239 33.9488 176.914 34.0704 177.595 34.0689C178.648 34.0715 179.684 33.8036 180.604 33.2909C181.471 32.8571 182.156 32.13 182.538 31.2389L187.123 32.5149C186.307 34.1582 185.024 35.524 183.435 36.4409C181.603 37.5023 179.512 38.0337 177.395 37.9759M182.819 25.3759C182.748 23.9434 182.126 22.5939 181.083 21.6089C180.314 20.9247 179.372 20.4659 178.359 20.2831C177.346 20.1003 176.302 20.2006 175.343 20.5729C174.73 20.8176 174.169 21.1755 173.689 21.6279C173.199 22.0962 172.8 22.6508 172.512 23.2639C172.2 23.9272 172.017 24.6441 171.974 25.3759H182.819Z" fill="#036E8A"/>
</svg>
